<mxfile host="app.diagrams.net" agent="Mozilla/5.0 (X11; Linux x86_64; rv:134.0) Gecko/20100101 Firefox/134.0" version="26.0.10">
  <diagram name="Page-1" id="vLis8VPiwHHcfsxQswA_">
    <mxGraphModel dx="1221" dy="766" grid="1" gridSize="10" guides="1" tooltips="1" connect="1" arrows="1" fold="1" page="1" pageScale="1" pageWidth="1169" pageHeight="827" math="0" shadow="0">
      <root>
        <mxCell id="0" />
        <mxCell id="1" parent="0" />
        <mxCell id="vEUcgPkDEEtu0uAhUr6B-4" value="&lt;font face=&quot;Comic Sans MS&quot;&gt;DynamicGuard&lt;/font&gt;" style="rounded=1;whiteSpace=wrap;html=1;fillColor=#FFE8F8;strokeColor=#FF99FF;" vertex="1" parent="1">
          <mxGeometry x="140" y="450" width="120" height="60" as="geometry" />
        </mxCell>
        <mxCell id="vEUcgPkDEEtu0uAhUr6B-5" value="&lt;font style=&quot;color: rgb(0, 0, 0);&quot; face=&quot;Comic Sans MS&quot;&gt;DynamicBridge&lt;/font&gt;" style="rounded=1;whiteSpace=wrap;html=1;fillColor=#e1d5e7;strokeColor=#9673a6;" vertex="1" parent="1">
          <mxGeometry x="290" y="480" width="120" height="60" as="geometry" />
        </mxCell>
        <mxCell id="vEUcgPkDEEtu0uAhUr6B-9" value="Backend" style="rounded=1;whiteSpace=wrap;html=1;fillColor=#f8cecc;strokeColor=#b85450;" vertex="1" parent="1">
          <mxGeometry x="110" y="354" width="120" height="60" as="geometry" />
        </mxCell>
        <mxCell id="vEUcgPkDEEtu0uAhUr6B-10" value="&lt;font face=&quot;Comic Sans MS&quot;&gt;Dashboard&lt;/font&gt;" style="rounded=1;whiteSpace=wrap;html=1;fillColor=#dae8fc;strokeColor=#6c8ebf;" vertex="1" parent="1">
          <mxGeometry x="430" y="440" width="120" height="60" as="geometry" />
        </mxCell>
        <mxCell id="vEUcgPkDEEtu0uAhUr6B-14" value="&lt;font face=&quot;Comic Sans MS&quot;&gt;StaticGuard&lt;/font&gt;" style="rounded=1;whiteSpace=wrap;html=1;fillColor=#fff2cc;strokeColor=#d6b656;" vertex="1" parent="1">
          <mxGeometry x="140" y="270" width="120" height="60" as="geometry" />
        </mxCell>
        <mxCell id="vEUcgPkDEEtu0uAhUr6B-15" value="&lt;font face=&quot;Comic Sans MS&quot;&gt;StaticBridge&lt;/font&gt;" style="rounded=1;whiteSpace=wrap;html=1;fillColor=#ffe6cc;strokeColor=#d79b00;" vertex="1" parent="1">
          <mxGeometry x="280" y="210" width="120" height="60" as="geometry" />
        </mxCell>
        <mxCell id="vEUcgPkDEEtu0uAhUr6B-25" value="" style="edgeStyle=orthogonalEdgeStyle;rounded=0;orthogonalLoop=1;jettySize=auto;html=1;" edge="1" parent="1">
          <mxGeometry relative="1" as="geometry">
            <mxPoint x="800" y="383.83" as="sourcePoint" />
            <mxPoint x="880" y="383.83" as="targetPoint" />
          </mxGeometry>
        </mxCell>
        <mxCell id="vEUcgPkDEEtu0uAhUr6B-18" value="Database" style="rounded=1;whiteSpace=wrap;html=1;fillColor=#d5e8d4;strokeColor=#82b366;" vertex="1" parent="1">
          <mxGeometry x="430" y="270" width="120" height="60" as="geometry" />
        </mxCell>
        <mxCell id="vEUcgPkDEEtu0uAhUr6B-24" style="edgeStyle=orthogonalEdgeStyle;rounded=0;orthogonalLoop=1;jettySize=auto;html=1;" edge="1" parent="1">
          <mxGeometry relative="1" as="geometry">
            <mxPoint x="600" y="384" as="sourcePoint" />
            <mxPoint x="680" y="384" as="targetPoint" />
          </mxGeometry>
        </mxCell>
        <mxCell id="vEUcgPkDEEtu0uAhUr6B-20" value="Model" style="rounded=1;whiteSpace=wrap;html=1;fillColor=#f5f5f5;strokeColor=#666666;fontColor=#333333;" vertex="1" parent="1">
          <mxGeometry x="465" y="354" width="120" height="60" as="geometry" />
        </mxCell>
        <mxCell id="vEUcgPkDEEtu0uAhUr6B-22" value="" style="image;sketch=0;aspect=fixed;html=1;points=[];align=center;fontSize=12;image=img/lib/mscae/Docker.svg;" vertex="1" parent="1">
          <mxGeometry x="297.56" y="341" width="104.88" height="86" as="geometry" />
        </mxCell>
        <mxCell id="vEUcgPkDEEtu0uAhUr6B-23" value="Remote server" style="verticalLabelPosition=bottom;sketch=0;aspect=fixed;html=1;verticalAlign=top;strokeColor=none;align=center;outlineConnect=0;shape=mxgraph.citrix.datacenter;" vertex="1" parent="1">
          <mxGeometry x="900" y="316.5" width="127.5" height="135" as="geometry" />
        </mxCell>
        <mxCell id="vEUcgPkDEEtu0uAhUr6B-26" value="GitHub" style="shape=image;html=1;verticalAlign=top;verticalLabelPosition=bottom;labelBackgroundColor=none;imageAspect=0;aspect=fixed;image=https://cdn4.iconfinder.com/data/icons/ionicons/512/icon-social-github-128.png" vertex="1" parent="1">
          <mxGeometry x="700" y="344" width="80" height="80" as="geometry" />
        </mxCell>
      </root>
    </mxGraphModel>
  </diagram>
</mxfile>
